{
    "asset" : {
        "generator" : "Khronos Blender glTF 2.0 I/O",
        "version" : "2.0"
    },
    "scene" : 0,
    "scenes" : [
        {
            "name" : "Scene",
            "nodes" : [
                0
            ]
        }
    ],
    "nodes" : [
        {
            "mesh" : 0,
            "name" : "Felsen.006-col"
        }
    ],
    "materials" : [
        {
            "name" : "Felsen",
            "pbrMetallicRoughness" : {
                "baseColorFactor" : [
                    0.43854397535324097,
                    0.31595757603645325,
                    0.15975017845630646,
                    1
                ],
                "metallicFactor" : 0,
                "roughnessFactor" : 0.5
            }
        }
    ],
    "meshes" : [
        {
            "name" : "Plane.015",
            "primitives" : [
                {
                    "attributes" : {
                        "POSITION" : 0,
                        "NORMAL" : 1,
                        "TEXCOORD_0" : 2
                    },
                    "indices" : 3,
                    "material" : 0
                }
            ]
        }
    ],
    "accessors" : [
        {
            "bufferView" : 0,
            "componentType" : 5126,
            "count" : 785,
            "max" : [
                3.8050544261932373,
                4.285007953643799,
                3.4802236557006836
            ],
            "min" : [
                -4.52695894241333,
                -0.09149007499217987,
                -2.9085628986358643
            ],
            "type" : "VEC3"
        },
        {
            "bufferView" : 1,
            "componentType" : 5126,
            "count" : 785,
            "type" : "VEC3"
        },
        {
            "bufferView" : 2,
            "componentType" : 5126,
            "count" : 785,
            "type" : "VEC2"
        },
        {
            "bufferView" : 3,
            "componentType" : 5123,
            "count" : 1122,
            "type" : "SCALAR"
        }
    ],
    "bufferViews" : [
        {
            "buffer" : 0,
            "byteLength" : 9420,
            "byteOffset" : 0
        },
        {
            "buffer" : 0,
            "byteLength" : 9420,
            "byteOffset" : 9420
        },
        {
            "buffer" : 0,
            "byteLength" : 6280,
            "byteOffset" : 18840
        },
        {
            "buffer" : 0,
            "byteLength" : 2244,
            "byteOffset" : 25120
        }
    ],
    "buffers" : [
        {
            "byteLength" : 27364,
            "uri" : "data:application/octet-stream;base64,"
        }
    ]
}
