{
    "asset" : {
        "generator" : "Khronos Blender glTF 2.0 I/O",
        "version" : "2.0"
    },
    "scene" : 0,
    "scenes" : [
        {
            "name" : "Scene",
            "nodes" : [
                0
            ]
        }
    ],
    "nodes" : [
        {
            "mesh" : 0,
            "name" : "LevelBlock.001-col"
        }
    ],
    "meshes" : [
        {
            "name" : "Plane.003",
            "primitives" : [
                {
                    "attributes" : {
                        "POSITION" : 0,
                        "NORMAL" : 1,
                        "TEXCOORD_0" : 2
                    },
                    "indices" : 3
                }
            ]
        }
    ],
    "accessors" : [
        {
            "bufferView" : 0,
            "componentType" : 5126,
            "count" : 4444,
            "max" : [
                21.34208869934082,
                7.540114402770996,
                0
            ],
            "min" : [
                -23.010461807250977,
                -0.1509075164794922,
                -100
            ],
            "type" : "VEC3"
        },
        {
            "bufferView" : 1,
            "componentType" : 5126,
            "count" : 4444,
            "type" : "VEC3"
        },
        {
            "bufferView" : 2,
            "componentType" : 5126,
            "count" : 4444,
            "type" : "VEC2"
        },
        {
            "bufferView" : 3,
            "componentType" : 5123,
            "count" : 5214,
            "type" : "SCALAR"
        }
    ],
    "bufferViews" : [
        {
            "buffer" : 0,
            "byteLength" : 53328,
            "byteOffset" : 0
        },
        {
            "buffer" : 0,
            "byteLength" : 53328,
            "byteOffset" : 53328
        },
        {
            "buffer" : 0,
            "byteLength" : 35552,
            "byteOffset" : 106656
        },
        {
            "buffer" : 0,
            "byteLength" : 10428,
            "byteOffset" : 142208
        }
    ],
    "buffers" : [
        {
            "byteLength" : 152636,
            "uri" : "data:application/octet-stream;base64,"
        }
    ]
}
