{
    "asset" : {
        "generator" : "Khronos Blender glTF 2.0 I/O",
        "version" : "2.0"
    },
    "scene" : 0,
    "scenes" : [
        {
            "name" : "Scene",
            "nodes" : [
                0
            ]
        }
    ],
    "nodes" : [
        {
            "mesh" : 0,
            "name" : "LevelBlock.000-col"
        }
    ],
    "meshes" : [
        {
            "name" : "Plane",
            "primitives" : [
                {
                    "attributes" : {
                        "POSITION" : 0,
                        "NORMAL" : 1,
                        "TEXCOORD_0" : 2
                    },
                    "indices" : 3
                }
            ]
        }
    ],
    "accessors" : [
        {
            "bufferView" : 0,
            "componentType" : 5126,
            "count" : 859,
            "max" : [
                23.010461807250977,
                7.540114402770996,
                0
            ],
            "min" : [
                -21.34208869934082,
                -3.3155083656311035e-07,
                -100
            ],
            "type" : "VEC3"
        },
        {
            "bufferView" : 1,
            "componentType" : 5126,
            "count" : 859,
            "type" : "VEC3"
        },
        {
            "bufferView" : 2,
            "componentType" : 5126,
            "count" : 859,
            "type" : "VEC2"
        },
        {
            "bufferView" : 3,
            "componentType" : 5123,
            "count" : 1083,
            "type" : "SCALAR"
        }
    ],
    "bufferViews" : [
        {
            "buffer" : 0,
            "byteLength" : 10308,
            "byteOffset" : 0
        },
        {
            "buffer" : 0,
            "byteLength" : 10308,
            "byteOffset" : 10308
        },
        {
            "buffer" : 0,
            "byteLength" : 6872,
            "byteOffset" : 20616
        },
        {
            "buffer" : 0,
            "byteLength" : 2166,
            "byteOffset" : 27488
        }
    ],
    "buffers" : [
        {
            "byteLength" : 29656,
            "uri" : "data:application/octet-stream;base64,"
        }
    ]
}
