{
    "asset" : {
        "generator" : "Khronos Blender glTF 2.0 I/O",
        "version" : "2.0"
    },
    "scene" : 0,
    "scenes" : [
        {
            "name" : "Scene",
            "nodes" : [
                0
            ]
        }
    ],
    "nodes" : [
        {
            "mesh" : 0,
            "name" : "Steine.001"
        }
    ],
    "materials" : [
        {
            "name" : "Stein",
            "pbrMetallicRoughness" : {
                "baseColorFactor" : [
                    0.19017621874809265,
                    0.17996835708618164,
                    0.07588127255439758,
                    1
                ],
                "metallicFactor" : 0,
                "roughnessFactor" : 0.5
            }
        }
    ],
    "meshes" : [
        {
            "name" : "Icosphere.012",
            "primitives" : [
                {
                    "attributes" : {
                        "POSITION" : 0,
                        "NORMAL" : 1,
                        "TEXCOORD_0" : 2
                    },
                    "indices" : 3,
                    "material" : 0
                }
            ]
        }
    ],
    "accessors" : [
        {
            "bufferView" : 0,
            "componentType" : 5126,
            "count" : 1194,
            "max" : [
                0.31447267532348633,
                0.07299873232841492,
                0.3914029002189636
            ],
            "min" : [
                -0.5175938010215759,
                -0.06874127686023712,
                -0.4219210147857666
            ],
            "type" : "VEC3"
        },
        {
            "bufferView" : 1,
            "componentType" : 5126,
            "count" : 1194,
            "type" : "VEC3"
        },
        {
            "bufferView" : 2,
            "componentType" : 5126,
            "count" : 1194,
            "type" : "VEC2"
        },
        {
            "bufferView" : 3,
            "componentType" : 5123,
            "count" : 1194,
            "type" : "SCALAR"
        }
    ],
    "bufferViews" : [
        {
            "buffer" : 0,
            "byteLength" : 14328,
            "byteOffset" : 0
        },
        {
            "buffer" : 0,
            "byteLength" : 14328,
            "byteOffset" : 14328
        },
        {
            "buffer" : 0,
            "byteLength" : 9552,
            "byteOffset" : 28656
        },
        {
            "buffer" : 0,
            "byteLength" : 2388,
            "byteOffset" : 38208
        }
    ],
    "buffers" : [
        {
            "byteLength" : 40596,
            "uri" : "data:application/octet-stream;base64,"
        }
    ]
}
