{
    "asset" : {
        "generator" : "Khronos Blender glTF 2.0 I/O",
        "version" : "2.0"
    },
    "scene" : 0,
    "scenes" : [
        {
            "name" : "Scene",
            "nodes" : [
                0
            ]
        }
    ],
    "nodes" : [
        {
            "mesh" : 0,
            "name" : "Stein.003-col"
        }
    ],
    "materials" : [
        {
            "name" : "Stein",
            "pbrMetallicRoughness" : {
                "baseColorFactor" : [
                    0.19017621874809265,
                    0.17996835708618164,
                    0.07588127255439758,
                    1
                ],
                "metallicFactor" : 0,
                "roughnessFactor" : 0.5
            }
        }
    ],
    "meshes" : [
        {
            "name" : "Icosphere.012",
            "primitives" : [
                {
                    "attributes" : {
                        "POSITION" : 0,
                        "NORMAL" : 1,
                        "TEXCOORD_0" : 2
                    },
                    "indices" : 3,
                    "material" : 0
                }
            ]
        }
    ],
    "accessors" : [
        {
            "bufferView" : 0,
            "componentType" : 5126,
            "count" : 150,
            "max" : [
                1.403205394744873,
                0.9160535335540771,
                1.5145912170410156
            ],
            "min" : [
                -1.4377970695495605,
                -0.9884437918663025,
                -1.3201382160186768
            ],
            "type" : "VEC3"
        },
        {
            "bufferView" : 1,
            "componentType" : 5126,
            "count" : 150,
            "type" : "VEC3"
        },
        {
            "bufferView" : 2,
            "componentType" : 5126,
            "count" : 150,
            "type" : "VEC2"
        },
        {
            "bufferView" : 3,
            "componentType" : 5123,
            "count" : 150,
            "type" : "SCALAR"
        }
    ],
    "bufferViews" : [
        {
            "buffer" : 0,
            "byteLength" : 1800,
            "byteOffset" : 0
        },
        {
            "buffer" : 0,
            "byteLength" : 1800,
            "byteOffset" : 1800
        },
        {
            "buffer" : 0,
            "byteLength" : 1200,
            "byteOffset" : 3600
        },
        {
            "buffer" : 0,
            "byteLength" : 300,
            "byteOffset" : 4800
        }
    ],
    "buffers" : [
        {
            "byteLength" : 5100,
            "uri" : "data:application/octet-stream;base64,"
        }
    ]
}
