{
    "asset" : {
        "generator" : "Khronos Blender glTF 2.0 I/O",
        "version" : "2.0"
    },
    "scene" : 0,
    "scenes" : [
        {
            "name" : "Scene",
            "nodes" : [
                0
            ]
        }
    ],
    "nodes" : [
        {
            "mesh" : 0,
            "name" : "Felsen.004-col"
        }
    ],
    "materials" : [
        {
            "name" : "Felsen",
            "pbrMetallicRoughness" : {
                "baseColorFactor" : [
                    0.43854397535324097,
                    0.31595757603645325,
                    0.15975017845630646,
                    1
                ],
                "metallicFactor" : 0,
                "roughnessFactor" : 0.5
            }
        }
    ],
    "meshes" : [
        {
            "name" : "Plane.015",
            "primitives" : [
                {
                    "attributes" : {
                        "POSITION" : 0,
                        "NORMAL" : 1,
                        "TEXCOORD_0" : 2
                    },
                    "indices" : 3,
                    "material" : 0
                }
            ]
        }
    ],
    "accessors" : [
        {
            "bufferView" : 0,
            "componentType" : 5126,
            "count" : 267,
            "max" : [
                1.6296428442001343,
                5.629185199737549,
                1.0994279384613037
            ],
            "min" : [
                -1.2648305892944336,
                -0.05949735641479492,
                -1.1235287189483643
            ],
            "type" : "VEC3"
        },
        {
            "bufferView" : 1,
            "componentType" : 5126,
            "count" : 267,
            "type" : "VEC3"
        },
        {
            "bufferView" : 2,
            "componentType" : 5126,
            "count" : 267,
            "type" : "VEC2"
        },
        {
            "bufferView" : 3,
            "componentType" : 5123,
            "count" : 420,
            "type" : "SCALAR"
        }
    ],
    "bufferViews" : [
        {
            "buffer" : 0,
            "byteLength" : 3204,
            "byteOffset" : 0
        },
        {
            "buffer" : 0,
            "byteLength" : 3204,
            "byteOffset" : 3204
        },
        {
            "buffer" : 0,
            "byteLength" : 2136,
            "byteOffset" : 6408
        },
        {
            "buffer" : 0,
            "byteLength" : 840,
            "byteOffset" : 8544
        }
    ],
    "buffers" : [
        {
            "byteLength" : 9384,
            "uri" : "data:application/octet-stream;base64,"
        }
    ]
}
