{
    "asset" : {
        "generator" : "Khronos Blender glTF 2.0 I/O",
        "version" : "2.0"
    },
    "scene" : 0,
    "scenes" : [
        {
            "name" : "Scene",
            "nodes" : [
                0
            ]
        }
    ],
    "nodes" : [
        {
            "mesh" : 0,
            "name" : "Steine.002"
        }
    ],
    "materials" : [
        {
            "name" : "Stein",
            "pbrMetallicRoughness" : {
                "baseColorFactor" : [
                    0.19017621874809265,
                    0.17996835708618164,
                    0.07588127255439758,
                    1
                ],
                "metallicFactor" : 0,
                "roughnessFactor" : 0.5
            }
        }
    ],
    "meshes" : [
        {
            "name" : "Icosphere.012",
            "primitives" : [
                {
                    "attributes" : {
                        "POSITION" : 0,
                        "NORMAL" : 1,
                        "TEXCOORD_0" : 2
                    },
                    "indices" : 3,
                    "material" : 0
                }
            ]
        }
    ],
    "accessors" : [
        {
            "bufferView" : 0,
            "componentType" : 5126,
            "count" : 894,
            "max" : [
                0.49488458037376404,
                0.07299873232841492,
                0.3914029002189636
            ],
            "min" : [
                -0.40460896492004395,
                -0.06874127686023712,
                -0.3735218644142151
            ],
            "type" : "VEC3"
        },
        {
            "bufferView" : 1,
            "componentType" : 5126,
            "count" : 894,
            "type" : "VEC3"
        },
        {
            "bufferView" : 2,
            "componentType" : 5126,
            "count" : 894,
            "type" : "VEC2"
        },
        {
            "bufferView" : 3,
            "componentType" : 5123,
            "count" : 894,
            "type" : "SCALAR"
        }
    ],
    "bufferViews" : [
        {
            "buffer" : 0,
            "byteLength" : 10728,
            "byteOffset" : 0
        },
        {
            "buffer" : 0,
            "byteLength" : 10728,
            "byteOffset" : 10728
        },
        {
            "buffer" : 0,
            "byteLength" : 7152,
            "byteOffset" : 21456
        },
        {
            "buffer" : 0,
            "byteLength" : 1788,
            "byteOffset" : 28608
        }
    ],
    "buffers" : [
        {
            "byteLength" : 30396,
            "uri" : "data:application/octet-stream;base64,"
        }
    ]
}
