{
    "asset" : {
        "generator" : "Khronos Blender glTF 2.0 I/O",
        "version" : "2.0"
    },
    "scene" : 0,
    "scenes" : [
        {
            "name" : "Scene",
            "nodes" : [
                0
            ]
        }
    ],
    "nodes" : [
        {
            "mesh" : 0,
            "name" : "Stein.002-col"
        }
    ],
    "materials" : [
        {
            "name" : "Stein",
            "pbrMetallicRoughness" : {
                "baseColorFactor" : [
                    0.19017621874809265,
                    0.17996835708618164,
                    0.07588127255439758,
                    1
                ],
                "metallicFactor" : 0,
                "roughnessFactor" : 0.5
            }
        }
    ],
    "meshes" : [
        {
            "name" : "Icosphere.012",
            "primitives" : [
                {
                    "attributes" : {
                        "POSITION" : 0,
                        "NORMAL" : 1,
                        "TEXCOORD_0" : 2
                    },
                    "indices" : 3,
                    "material" : 0
                }
            ]
        }
    ],
    "accessors" : [
        {
            "bufferView" : 0,
            "componentType" : 5126,
            "count" : 186,
            "max" : [
                1.0673130750656128,
                0.6375048160552979,
                1.1027885675430298
            ],
            "min" : [
                -0.6713629961013794,
                -0.6116933822631836,
                -0.5455829501152039
            ],
            "type" : "VEC3"
        },
        {
            "bufferView" : 1,
            "componentType" : 5126,
            "count" : 186,
            "type" : "VEC3"
        },
        {
            "bufferView" : 2,
            "componentType" : 5126,
            "count" : 186,
            "type" : "VEC2"
        },
        {
            "bufferView" : 3,
            "componentType" : 5123,
            "count" : 186,
            "type" : "SCALAR"
        }
    ],
    "bufferViews" : [
        {
            "buffer" : 0,
            "byteLength" : 2232,
            "byteOffset" : 0
        },
        {
            "buffer" : 0,
            "byteLength" : 2232,
            "byteOffset" : 2232
        },
        {
            "buffer" : 0,
            "byteLength" : 1488,
            "byteOffset" : 4464
        },
        {
            "buffer" : 0,
            "byteLength" : 372,
            "byteOffset" : 5952
        }
    ],
    "buffers" : [
        {
            "byteLength" : 6324,
            "uri" : "data:application/octet-stream;base64,"
        }
    ]
}
