{
    "asset" : {
        "generator" : "Khronos Blender glTF 2.0 I/O",
        "version" : "2.0"
    },
    "scene" : 0,
    "scenes" : [
        {
            "name" : "Scene",
            "nodes" : [
                0,
                1,
                2,
                3,
                4,
                5,
                6
            ]
        }
    ],
    "nodes" : [
        {
            "mesh" : 0,
            "name" : "Baum2-col",
            "translation" : [
                -6.272944450378418,
                0,
                0
            ]
        },
        {
            "mesh" : 1,
            "name" : "Baum1-col",
            "translation" : [
                -9.845352172851562,
                0,
                0
            ]
        },
        {
            "mesh" : 2,
            "name" : "Baumstamm-col",
            "translation" : [
                5.911130905151367,
                0,
                0
            ]
        },
        {
            "mesh" : 3,
            "name" : "Haeuschen-col",
            "translation" : [
                3.1456642150878906,
                0,
                0
            ]
        },
        {
            "mesh" : 4,
            "name" : "Mauer-col",
            "translation" : [
                -4.410223484039307,
                0,
                0
            ]
        },
        {
            "mesh" : 5,
            "name" : "Zaun-col"
        },
        {
            "mesh" : 6,
            "name" : "Kaktus.-col",
            "translation" : [
                -11.54616928100586,
                0,
                0
            ]
        }
    ],
    "materials" : [
        {
            "name" : "Holz1",
            "pbrMetallicRoughness" : {
                "baseColorFactor" : [
                    0.06997813284397125,
                    0.021231748163700104,
                    0.004912054631859064,
                    1
                ],
                "metallicFactor" : 0,
                "roughnessFactor" : 0.9545454978942871
            }
        },
        {
            "name" : "Gruenzeugs",
            "pbrMetallicRoughness" : {
                "baseColorFactor" : [
                    0.042740125209093094,
                    0.12823931872844696,
                    0.012336590327322483,
                    1
                ],
                "metallicFactor" : 0,
                "roughnessFactor" : 0.5
            }
        },
        {
            "name" : "Holz2",
            "pbrMetallicRoughness" : {
                "baseColorFactor" : [
                    0.16263972222805023,
                    0.07239581644535065,
                    0.0185229629278183,
                    1
                ],
                "metallicFactor" : 0,
                "roughnessFactor" : 0.5
            }
        },
        {
            "name" : "Mauer",
            "pbrMetallicRoughness" : {
                "baseColorFactor" : [
                    0.32637572288513184,
                    0.07723921537399292,
                    0.03773334249854088,
                    1
                ],
                "metallicFactor" : 0,
                "roughnessFactor" : 0.9545454978942871
            }
        },
        {
            "name" : "Kaktus",
            "pbrMetallicRoughness" : {
                "baseColorFactor" : [
                    0.005573369562625885,
                    0.39311447739601135,
                    0.013300717808306217,
                    1
                ],
                "metallicFactor" : 0,
                "roughnessFactor" : 0.800000011920929
            }
        }
    ],
    "meshes" : [
        {
            "name" : "Cube.001",
            "primitives" : [
                {
                    "attributes" : {
                        "POSITION" : 0,
                        "NORMAL" : 1,
                        "TEXCOORD_0" : 2
                    },
                    "indices" : 3,
                    "material" : 0
                },
                {
                    "attributes" : {
                        "POSITION" : 4,
                        "NORMAL" : 5,
                        "TEXCOORD_0" : 6
                    },
                    "indices" : 7,
                    "material" : 1
                }
            ]
        },
        {
            "name" : "Cube.003",
            "primitives" : [
                {
                    "attributes" : {
                        "POSITION" : 8,
                        "NORMAL" : 9,
                        "TEXCOORD_0" : 10
                    },
                    "indices" : 11,
                    "material" : 0
                }
            ]
        },
        {
            "name" : "Cylinder",
            "primitives" : [
                {
                    "attributes" : {
                        "POSITION" : 12,
                        "NORMAL" : 13,
                        "TEXCOORD_0" : 14
                    },
                    "indices" : 15,
                    "material" : 0
                },
                {
                    "attributes" : {
                        "POSITION" : 16,
                        "NORMAL" : 17,
                        "TEXCOORD_0" : 18
                    },
                    "indices" : 19,
                    "material" : 2
                }
            ]
        },
        {
            "name" : "Cube.004",
            "primitives" : [
                {
                    "attributes" : {
                        "POSITION" : 20,
                        "NORMAL" : 21,
                        "TEXCOORD_0" : 22
                    },
                    "indices" : 23,
                    "material" : 2
                },
                {
                    "attributes" : {
                        "POSITION" : 24,
                        "NORMAL" : 25,
                        "TEXCOORD_0" : 26
                    },
                    "indices" : 27,
                    "material" : 0
                }
            ]
        },
        {
            "name" : "Cube.005",
            "primitives" : [
                {
                    "attributes" : {
                        "POSITION" : 28,
                        "NORMAL" : 29,
                        "TEXCOORD_0" : 30
                    },
                    "indices" : 31,
                    "material" : 3
                }
            ]
        },
        {
            "name" : "Cube.006",
            "primitives" : [
                {
                    "attributes" : {
                        "POSITION" : 32,
                        "NORMAL" : 33,
                        "TEXCOORD_0" : 34
                    },
                    "indices" : 35,
                    "material" : 2
                },
                {
                    "attributes" : {
                        "POSITION" : 36,
                        "NORMAL" : 37,
                        "TEXCOORD_0" : 38
                    },
                    "indices" : 39,
                    "material" : 0
                }
            ]
        },
        {
            "name" : "Cube",
            "primitives" : [
                {
                    "attributes" : {
                        "POSITION" : 40,
                        "NORMAL" : 41,
                        "TEXCOORD_0" : 42
                    },
                    "indices" : 43,
                    "material" : 4
                }
            ]
        }
    ],
    "accessors" : [
        {
            "bufferView" : 0,
            "componentType" : 5126,
            "count" : 464,
            "max" : [
                0.6869936585426331,
                2.92275333404541,
                0.3296637535095215
            ],
            "min" : [
                -1.0084965229034424,
                -0.016618311405181885,
                -0.33437711000442505
            ],
            "type" : "VEC3"
        },
        {
            "bufferView" : 1,
            "componentType" : 5126,
            "count" : 464,
            "type" : "VEC3"
        },
        {
            "bufferView" : 2,
            "componentType" : 5126,
            "count" : 464,
            "type" : "VEC2"
        },
        {
            "bufferView" : 3,
            "componentType" : 5123,
            "count" : 618,
            "type" : "SCALAR"
        },
        {
            "bufferView" : 4,
            "componentType" : 5126,
            "count" : 180,
            "max" : [
                1.5055197477340698,
                4.1094794273376465,
                0.9739513993263245
            ],
            "min" : [
                -1.6099305152893066,
                2.267634868621826,
                -1.5312695503234863
            ],
            "type" : "VEC3"
        },
        {
            "bufferView" : 5,
            "componentType" : 5126,
            "count" : 180,
            "type" : "VEC3"
        },
        {
            "bufferView" : 6,
            "componentType" : 5126,
            "count" : 180,
            "type" : "VEC2"
        },
        {
            "bufferView" : 7,
            "componentType" : 5123,
            "count" : 180,
            "type" : "SCALAR"
        },
        {
            "bufferView" : 8,
            "componentType" : 5126,
            "count" : 456,
            "max" : [
                1.481845498085022,
                2.921145439147949,
                0.3296637535095215
            ],
            "min" : [
                -1.0795527696609497,
                -0.018226228654384613,
                -0.33437711000442505
            ],
            "type" : "VEC3"
        },
        {
            "bufferView" : 9,
            "componentType" : 5126,
            "count" : 456,
            "type" : "VEC3"
        },
        {
            "bufferView" : 10,
            "componentType" : 5126,
            "count" : 456,
            "type" : "VEC2"
        },
        {
            "bufferView" : 11,
            "componentType" : 5123,
            "count" : 618,
            "type" : "SCALAR"
        },
        {
            "bufferView" : 12,
            "componentType" : 5126,
            "count" : 192,
            "max" : [
                1.4671789407730103,
                0.8820186853408813,
                0.2892175614833832
            ],
            "min" : [
                -1.58018159866333,
                -0.005736321210861206,
                -0.2892177104949951
            ],
            "type" : "VEC3"
        },
        {
            "bufferView" : 13,
            "componentType" : 5126,
            "count" : 192,
            "type" : "VEC3"
        },
        {
            "bufferView" : 14,
            "componentType" : 5126,
            "count" : 192,
            "type" : "VEC2"
        },
        {
            "bufferView" : 15,
            "componentType" : 5123,
            "count" : 288,
            "type" : "SCALAR"
        },
        {
            "bufferView" : 16,
            "componentType" : 5126,
            "count" : 32,
            "max" : [
                1.4671789407730103,
                0.5049024820327759,
                0.22142118215560913
            ],
            "min" : [
                -1.58018159866333,
                0.062059998512268066,
                -0.22142142057418823
            ],
            "type" : "VEC3"
        },
        {
            "bufferView" : 17,
            "componentType" : 5126,
            "count" : 32,
            "type" : "VEC3"
        },
        {
            "bufferView" : 18,
            "componentType" : 5126,
            "count" : 32,
            "type" : "VEC2"
        },
        {
            "bufferView" : 19,
            "componentType" : 5123,
            "count" : 48,
            "type" : "SCALAR"
        },
        {
            "bufferView" : 20,
            "componentType" : 5126,
            "count" : 44,
            "max" : [
                0.5605506896972656,
                2.279574394226074,
                0.5605506896972656
            ],
            "min" : [
                -0.5605506896972656,
                0,
                -0.5605506896972656
            ],
            "type" : "VEC3"
        },
        {
            "bufferView" : 21,
            "componentType" : 5126,
            "count" : 44,
            "type" : "VEC3"
        },
        {
            "bufferView" : 22,
            "componentType" : 5126,
            "count" : 44,
            "type" : "VEC2"
        },
        {
            "bufferView" : 23,
            "componentType" : 5123,
            "count" : 66,
            "type" : "SCALAR"
        },
        {
            "bufferView" : 24,
            "componentType" : 5126,
            "count" : 98,
            "max" : [
                0.43679890036582947,
                1.9714456796646118,
                0.5754933953285217
            ],
            "min" : [
                -0.43679890036582947,
                0,
                0.4936078190803528
            ],
            "type" : "VEC3"
        },
        {
            "bufferView" : 25,
            "componentType" : 5126,
            "count" : 98,
            "type" : "VEC3"
        },
        {
            "bufferView" : 26,
            "componentType" : 5126,
            "count" : 98,
            "type" : "VEC2"
        },
        {
            "bufferView" : 27,
            "componentType" : 5123,
            "count" : 192,
            "type" : "SCALAR"
        },
        {
            "bufferView" : 28,
            "componentType" : 5126,
            "count" : 864,
            "max" : [
                1.0315430164337158,
                0.5098985433578491,
                0.19484899938106537
            ],
            "min" : [
                -0.8316285014152527,
                0,
                -0.1308475136756897
            ],
            "type" : "VEC3"
        },
        {
            "bufferView" : 29,
            "componentType" : 5126,
            "count" : 864,
            "type" : "VEC3"
        },
        {
            "bufferView" : 30,
            "componentType" : 5126,
            "count" : 864,
            "type" : "VEC2"
        },
        {
            "bufferView" : 31,
            "componentType" : 5123,
            "count" : 1188,
            "type" : "SCALAR"
        },
        {
            "bufferView" : 32,
            "componentType" : 5126,
            "count" : 72,
            "max" : [
                1.1232374906539917,
                1.0006873607635498,
                0.08634959161281586
            ],
            "min" : [
                -0.9252605438232422,
                0.09268893301486969,
                0.05225544050335884
            ],
            "type" : "VEC3"
        },
        {
            "bufferView" : 33,
            "componentType" : 5126,
            "count" : 72,
            "type" : "VEC3"
        },
        {
            "bufferView" : 34,
            "componentType" : 5126,
            "count" : 72,
            "type" : "VEC2"
        },
        {
            "bufferView" : 35,
            "componentType" : 5123,
            "count" : 108,
            "type" : "SCALAR"
        },
        {
            "bufferView" : 36,
            "componentType" : 5126,
            "count" : 48,
            "max" : [
                1.0431087017059326,
                1.099529504776001,
                0.05225557088851929
            ],
            "min" : [
                -0.7595046162605286,
                -0.03825737535953522,
                -0.052255574613809586
            ],
            "type" : "VEC3"
        },
        {
            "bufferView" : 37,
            "componentType" : 5126,
            "count" : 48,
            "type" : "VEC3"
        },
        {
            "bufferView" : 38,
            "componentType" : 5126,
            "count" : 48,
            "type" : "VEC2"
        },
        {
            "bufferView" : 39,
            "componentType" : 5123,
            "count" : 72,
            "type" : "SCALAR"
        },
        {
            "bufferView" : 40,
            "componentType" : 5126,
            "count" : 320,
            "max" : [
                0.8268366456031799,
                1.9964908361434937,
                0.23113754391670227
            ],
            "min" : [
                -0.8268366456031799,
                0,
                -0.23113754391670227
            ],
            "type" : "VEC3"
        },
        {
            "bufferView" : 41,
            "componentType" : 5126,
            "count" : 320,
            "type" : "VEC3"
        },
        {
            "bufferView" : 42,
            "componentType" : 5126,
            "count" : 320,
            "type" : "VEC2"
        },
        {
            "bufferView" : 43,
            "componentType" : 5123,
            "count" : 480,
            "type" : "SCALAR"
        }
    ],
    "bufferViews" : [
        {
            "buffer" : 0,
            "byteLength" : 5568,
            "byteOffset" : 0
        },
        {
            "buffer" : 0,
            "byteLength" : 5568,
            "byteOffset" : 5568
        },
        {
            "buffer" : 0,
            "byteLength" : 3712,
            "byteOffset" : 11136
        },
        {
            "buffer" : 0,
            "byteLength" : 1236,
            "byteOffset" : 14848
        },
        {
            "buffer" : 0,
            "byteLength" : 2160,
            "byteOffset" : 16084
        },
        {
            "buffer" : 0,
            "byteLength" : 2160,
            "byteOffset" : 18244
        },
        {
            "buffer" : 0,
            "byteLength" : 1440,
            "byteOffset" : 20404
        },
        {
            "buffer" : 0,
            "byteLength" : 360,
            "byteOffset" : 21844
        },
        {
            "buffer" : 0,
            "byteLength" : 5472,
            "byteOffset" : 22204
        },
        {
            "buffer" : 0,
            "byteLength" : 5472,
            "byteOffset" : 27676
        },
        {
            "buffer" : 0,
            "byteLength" : 3648,
            "byteOffset" : 33148
        },
        {
            "buffer" : 0,
            "byteLength" : 1236,
            "byteOffset" : 36796
        },
        {
            "buffer" : 0,
            "byteLength" : 2304,
            "byteOffset" : 38032
        },
        {
            "buffer" : 0,
            "byteLength" : 2304,
            "byteOffset" : 40336
        },
        {
            "buffer" : 0,
            "byteLength" : 1536,
            "byteOffset" : 42640
        },
        {
            "buffer" : 0,
            "byteLength" : 576,
            "byteOffset" : 44176
        },
        {
            "buffer" : 0,
            "byteLength" : 384,
            "byteOffset" : 44752
        },
        {
            "buffer" : 0,
            "byteLength" : 384,
            "byteOffset" : 45136
        },
        {
            "buffer" : 0,
            "byteLength" : 256,
            "byteOffset" : 45520
        },
        {
            "buffer" : 0,
            "byteLength" : 96,
            "byteOffset" : 45776
        },
        {
            "buffer" : 0,
            "byteLength" : 528,
            "byteOffset" : 45872
        },
        {
            "buffer" : 0,
            "byteLength" : 528,
            "byteOffset" : 46400
        },
        {
            "buffer" : 0,
            "byteLength" : 352,
            "byteOffset" : 46928
        },
        {
            "buffer" : 0,
            "byteLength" : 132,
            "byteOffset" : 47280
        },
        {
            "buffer" : 0,
            "byteLength" : 1176,
            "byteOffset" : 47412
        },
        {
            "buffer" : 0,
            "byteLength" : 1176,
            "byteOffset" : 48588
        },
        {
            "buffer" : 0,
            "byteLength" : 784,
            "byteOffset" : 49764
        },
        {
            "buffer" : 0,
            "byteLength" : 384,
            "byteOffset" : 50548
        },
        {
            "buffer" : 0,
            "byteLength" : 10368,
            "byteOffset" : 50932
        },
        {
            "buffer" : 0,
            "byteLength" : 10368,
            "byteOffset" : 61300
        },
        {
            "buffer" : 0,
            "byteLength" : 6912,
            "byteOffset" : 71668
        },
        {
            "buffer" : 0,
            "byteLength" : 2376,
            "byteOffset" : 78580
        },
        {
            "buffer" : 0,
            "byteLength" : 864,
            "byteOffset" : 80956
        },
        {
            "buffer" : 0,
            "byteLength" : 864,
            "byteOffset" : 81820
        },
        {
            "buffer" : 0,
            "byteLength" : 576,
            "byteOffset" : 82684
        },
        {
            "buffer" : 0,
            "byteLength" : 216,
            "byteOffset" : 83260
        },
        {
            "buffer" : 0,
            "byteLength" : 576,
            "byteOffset" : 83476
        },
        {
            "buffer" : 0,
            "byteLength" : 576,
            "byteOffset" : 84052
        },
        {
            "buffer" : 0,
            "byteLength" : 384,
            "byteOffset" : 84628
        },
        {
            "buffer" : 0,
            "byteLength" : 144,
            "byteOffset" : 85012
        },
        {
            "buffer" : 0,
            "byteLength" : 3840,
            "byteOffset" : 85156
        },
        {
            "buffer" : 0,
            "byteLength" : 3840,
            "byteOffset" : 88996
        },
        {
            "buffer" : 0,
            "byteLength" : 2560,
            "byteOffset" : 92836
        },
        {
            "buffer" : 0,
            "byteLength" : 960,
            "byteOffset" : 95396
        }
    ],
    "buffers" : [
        {
            "byteLength" : 96356,
            "uri" : "data:application/octet-stream;base64,"
        }
    ]
}
