{
    "asset" : {
        "generator" : "Khronos Blender glTF 2.0 I/O",
        "version" : "2.0"
    },
    "scene" : 0,
    "scenes" : [
        {
            "name" : "Scene",
            "nodes" : [
                0
            ]
        }
    ],
    "nodes" : [
        {
            "mesh" : 0,
            "name" : "Player"
        }
    ],
    "materials" : [
        {
            "name" : "Player",
            "pbrMetallicRoughness" : {
                "baseColorFactor" : [
                    0.0030104126781225204,
                    0.0946258008480072,
                    0.00730787543579936,
                    1
                ],
                "metallicFactor" : 0,
                "roughnessFactor" : 0.5
            }
        }
    ],
    "meshes" : [
        {
            "name" : "Cube.001",
            "primitives" : [
                {
                    "attributes" : {
                        "POSITION" : 0,
                        "NORMAL" : 1,
                        "TEXCOORD_0" : 2
                    },
                    "indices" : 3,
                    "material" : 0
                }
            ]
        }
    ],
    "accessors" : [
        {
            "bufferView" : 0,
            "componentType" : 5126,
            "count" : 902,
            "max" : [
                0.6895578503608704,
                1.9456855058670044,
                0.18547743558883667
            ],
            "min" : [
                -0.6895578503608704,
                -0.0015169711550697684,
                -0.2767462134361267
            ],
            "type" : "VEC3"
        },
        {
            "bufferView" : 1,
            "componentType" : 5126,
            "count" : 902,
            "type" : "VEC3"
        },
        {
            "bufferView" : 2,
            "componentType" : 5126,
            "count" : 902,
            "type" : "VEC2"
        },
        {
            "bufferView" : 3,
            "componentType" : 5123,
            "count" : 1152,
            "type" : "SCALAR"
        }
    ],
    "bufferViews" : [
        {
            "buffer" : 0,
            "byteLength" : 10824,
            "byteOffset" : 0
        },
        {
            "buffer" : 0,
            "byteLength" : 10824,
            "byteOffset" : 10824
        },
        {
            "buffer" : 0,
            "byteLength" : 7216,
            "byteOffset" : 21648
        },
        {
            "buffer" : 0,
            "byteLength" : 2304,
            "byteOffset" : 28864
        }
    ],
    "buffers" : [
        {
            "byteLength" : 31168,
            "uri" : "data:application/octet-stream;base64,"
        }
    ]
}
