{
    "accessors" : [
        {
            "bufferView" : 0,
            "componentType" : 5126,
            "count" : 1970,
            "max" : [
                2.214447498321533,
                2.106903076171875,
                0.8511911630630493
            ],
            "min" : [
                -2.214447498321533,
                0,
                -0.8511912822723389
            ],
            "type" : "VEC3"
        },
        {
            "bufferView" : 1,
            "componentType" : 5126,
            "count" : 1970,
            "type" : "VEC3"
        },
        {
            "bufferView" : 2,
            "componentType" : 5126,
            "count" : 1970,
            "type" : "VEC4"
        },
        {
            "bufferView" : 3,
            "componentType" : 5126,
            "count" : 1970,
            "type" : "VEC2"
        },
        {
            "bufferView" : 4,
            "componentType" : 5123,
            "count" : 2940,
            "type" : "SCALAR"
        }
    ],
    "asset" : {
        "generator" : "Khronos Blender glTF 2.0 I/O",
        "version" : "2.0"
    },
    "bufferViews" : [
        {
            "buffer" : 0,
            "byteLength" : 23640,
            "byteOffset" : 0
        },
        {
            "buffer" : 0,
            "byteLength" : 23640,
            "byteOffset" : 23640
        },
        {
            "buffer" : 0,
            "byteLength" : 31520,
            "byteOffset" : 47280
        },
        {
            "buffer" : 0,
            "byteLength" : 15760,
            "byteOffset" : 78800
        },
        {
            "buffer" : 0,
            "byteLength" : 5880,
            "byteOffset" : 94560
        }
    ],
    "buffers" : [
        {
            "byteLength" : 100440,
            "uri" : "data:application/octet-stream;base64,"
        }
    ],
    "extensions" : {},
    "meshes" : [
        {
            "name" : "Cylinder.001",
            "primitives" : [
                {
                    "attributes" : {
                        "NORMAL" : 1,
                        "POSITION" : 0,
                        "TANGENT" : 2,
                        "TEXCOORD_0" : 3
                    },
                    "indices" : 4
                }
            ]
        }
    ],
    "nodes" : [
        {
            "mesh" : 0,
            "name" : "Cylinder",
            "scale" : [
                0.25,
                0.8999999761581421,
                0.25
            ]
        }
    ],
    "scene" : 0,
    "scenes" : [
        {
            "name" : "Scene",
            "nodes" : [
                0
            ]
        }
    ]
}
